<mxfile host="app.diagrams.net" agent="Mozilla/5.0 (Windows NT 10.0; Win64; x64) AppleWebKit/537.36 (KHTML, like Gecko) Chrome/128.0.0.0 YaBrowser/24.10.0.0 Safari/537.36" version="24.8.3">
  <diagram id="Q3700qw2erzk5v5Ac9q-" name="Страница — 2">
    <mxGraphModel dx="3319" dy="2979" grid="1" gridSize="10" guides="1" tooltips="1" connect="1" arrows="1" fold="1" page="1" pageScale="1" pageWidth="827" pageHeight="1169" math="0" shadow="0">
      <root>
        <mxCell id="0" />
        <mxCell id="1" parent="0" />
        <mxCell id="ljMkYENFZzZCaW7aI6AF-1" value="organizations" style="swimlane;fontStyle=0;childLayout=stackLayout;horizontal=1;startSize=26;fillColor=none;horizontalStack=0;resizeParent=1;resizeParentMax=0;resizeLast=0;collapsible=1;marginBottom=0;whiteSpace=wrap;html=1;" vertex="1" parent="1">
          <mxGeometry x="-1320" y="-1920" width="180" height="104" as="geometry" />
        </mxCell>
        <mxCell id="ljMkYENFZzZCaW7aI6AF-2" value="id SERIAL PK" style="text;strokeColor=none;fillColor=none;align=left;verticalAlign=top;spacingLeft=4;spacingRight=4;overflow=hidden;rotatable=0;points=[[0,0.5],[1,0.5]];portConstraint=eastwest;whiteSpace=wrap;html=1;" vertex="1" parent="ljMkYENFZzZCaW7aI6AF-1">
          <mxGeometry y="26" width="180" height="26" as="geometry" />
        </mxCell>
        <mxCell id="ljMkYENFZzZCaW7aI6AF-3" value="title VARCHAR(50) NOT NULL" style="text;strokeColor=none;fillColor=none;align=left;verticalAlign=top;spacingLeft=4;spacingRight=4;overflow=hidden;rotatable=0;points=[[0,0.5],[1,0.5]];portConstraint=eastwest;whiteSpace=wrap;html=1;" vertex="1" parent="ljMkYENFZzZCaW7aI6AF-1">
          <mxGeometry y="52" width="180" height="26" as="geometry" />
        </mxCell>
        <mxCell id="ljMkYENFZzZCaW7aI6AF-4" value="comment TEXT" style="text;strokeColor=none;fillColor=none;align=left;verticalAlign=top;spacingLeft=4;spacingRight=4;overflow=hidden;rotatable=0;points=[[0,0.5],[1,0.5]];portConstraint=eastwest;whiteSpace=wrap;html=1;" vertex="1" parent="ljMkYENFZzZCaW7aI6AF-1">
          <mxGeometry y="78" width="180" height="26" as="geometry" />
        </mxCell>
        <mxCell id="ljMkYENFZzZCaW7aI6AF-5" value="department" style="swimlane;fontStyle=0;childLayout=stackLayout;horizontal=1;startSize=26;fillColor=none;horizontalStack=0;resizeParent=1;resizeParentMax=0;resizeLast=0;collapsible=1;marginBottom=0;whiteSpace=wrap;html=1;" vertex="1" parent="1">
          <mxGeometry x="-1380" y="-1630" width="230" height="156" as="geometry" />
        </mxCell>
        <mxCell id="ljMkYENFZzZCaW7aI6AF-6" value="id SERIAL PK" style="text;strokeColor=none;fillColor=none;align=left;verticalAlign=top;spacingLeft=4;spacingRight=4;overflow=hidden;rotatable=0;points=[[0,0.5],[1,0.5]];portConstraint=eastwest;whiteSpace=wrap;html=1;" vertex="1" parent="ljMkYENFZzZCaW7aI6AF-5">
          <mxGeometry y="26" width="230" height="26" as="geometry" />
        </mxCell>
        <mxCell id="ljMkYENFZzZCaW7aI6AF-7" value="title VARCHAR(50) NOT NULL" style="text;strokeColor=none;fillColor=none;align=left;verticalAlign=top;spacingLeft=4;spacingRight=4;overflow=hidden;rotatable=0;points=[[0,0.5],[1,0.5]];portConstraint=eastwest;whiteSpace=wrap;html=1;" vertex="1" parent="ljMkYENFZzZCaW7aI6AF-5">
          <mxGeometry y="52" width="230" height="26" as="geometry" />
        </mxCell>
        <mxCell id="ljMkYENFZzZCaW7aI6AF-8" value="comment VARCHAR(50)&amp;nbsp;" style="text;strokeColor=none;fillColor=none;align=left;verticalAlign=top;spacingLeft=4;spacingRight=4;overflow=hidden;rotatable=0;points=[[0,0.5],[1,0.5]];portConstraint=eastwest;whiteSpace=wrap;html=1;" vertex="1" parent="ljMkYENFZzZCaW7aI6AF-5">
          <mxGeometry y="78" width="230" height="26" as="geometry" />
        </mxCell>
        <mxCell id="ljMkYENFZzZCaW7aI6AF-9" value="parent INT FK" style="text;strokeColor=none;fillColor=none;align=left;verticalAlign=top;spacingLeft=4;spacingRight=4;overflow=hidden;rotatable=0;points=[[0,0.5],[1,0.5]];portConstraint=eastwest;whiteSpace=wrap;html=1;" vertex="1" parent="ljMkYENFZzZCaW7aI6AF-5">
          <mxGeometry y="104" width="230" height="26" as="geometry" />
        </mxCell>
        <mxCell id="ljMkYENFZzZCaW7aI6AF-10" value="organization_id INT F&lt;span style=&quot;background-color: initial;&quot;&gt;K&lt;/span&gt;" style="text;strokeColor=none;fillColor=none;align=left;verticalAlign=top;spacingLeft=4;spacingRight=4;overflow=hidden;rotatable=0;points=[[0,0.5],[1,0.5]];portConstraint=eastwest;whiteSpace=wrap;html=1;" vertex="1" parent="ljMkYENFZzZCaW7aI6AF-5">
          <mxGeometry y="130" width="230" height="26" as="geometry" />
        </mxCell>
        <mxCell id="ljMkYENFZzZCaW7aI6AF-136" value="" style="endArrow=none;html=1;edgeStyle=orthogonalEdgeStyle;rounded=0;exitX=0;exitY=0.5;exitDx=0;exitDy=0;entryX=0;entryY=0.5;entryDx=0;entryDy=0;" edge="1" parent="ljMkYENFZzZCaW7aI6AF-5" source="ljMkYENFZzZCaW7aI6AF-9" target="ljMkYENFZzZCaW7aI6AF-6">
          <mxGeometry relative="1" as="geometry">
            <mxPoint x="-110.02999999999997" y="174" as="sourcePoint" />
            <mxPoint x="-40" y="-220" as="targetPoint" />
            <Array as="points">
              <mxPoint x="-90" y="117" />
              <mxPoint x="-90" y="39" />
            </Array>
          </mxGeometry>
        </mxCell>
        <mxCell id="ljMkYENFZzZCaW7aI6AF-137" value="*" style="edgeLabel;resizable=0;html=1;align=left;verticalAlign=bottom;" connectable="0" vertex="1" parent="ljMkYENFZzZCaW7aI6AF-136">
          <mxGeometry x="-1" relative="1" as="geometry">
            <mxPoint x="-10" as="offset" />
          </mxGeometry>
        </mxCell>
        <mxCell id="ljMkYENFZzZCaW7aI6AF-138" value="1" style="edgeLabel;resizable=0;html=1;align=right;verticalAlign=bottom;" connectable="0" vertex="1" parent="ljMkYENFZzZCaW7aI6AF-136">
          <mxGeometry x="1" relative="1" as="geometry">
            <mxPoint x="-10" as="offset" />
          </mxGeometry>
        </mxCell>
        <mxCell id="ljMkYENFZzZCaW7aI6AF-11" value="position" style="swimlane;fontStyle=0;childLayout=stackLayout;horizontal=1;startSize=26;fillColor=none;horizontalStack=0;resizeParent=1;resizeParentMax=0;resizeLast=0;collapsible=1;marginBottom=0;whiteSpace=wrap;html=1;" vertex="1" parent="1">
          <mxGeometry x="-1000" y="-1752" width="140" height="78" as="geometry" />
        </mxCell>
        <mxCell id="ljMkYENFZzZCaW7aI6AF-12" value="id SERIAL PK" style="text;strokeColor=none;fillColor=none;align=left;verticalAlign=top;spacingLeft=4;spacingRight=4;overflow=hidden;rotatable=0;points=[[0,0.5],[1,0.5]];portConstraint=eastwest;whiteSpace=wrap;html=1;" vertex="1" parent="ljMkYENFZzZCaW7aI6AF-11">
          <mxGeometry y="26" width="140" height="26" as="geometry" />
        </mxCell>
        <mxCell id="ljMkYENFZzZCaW7aI6AF-13" value="title VARCHAR(50)" style="text;strokeColor=none;fillColor=none;align=left;verticalAlign=top;spacingLeft=4;spacingRight=4;overflow=hidden;rotatable=0;points=[[0,0.5],[1,0.5]];portConstraint=eastwest;whiteSpace=wrap;html=1;" vertex="1" parent="ljMkYENFZzZCaW7aI6AF-11">
          <mxGeometry y="52" width="140" height="26" as="geometry" />
        </mxCell>
        <mxCell id="ljMkYENFZzZCaW7aI6AF-14" value="employees" style="swimlane;fontStyle=0;childLayout=stackLayout;horizontal=1;startSize=26;fillColor=none;horizontalStack=0;resizeParent=1;resizeParentMax=0;resizeLast=0;collapsible=1;marginBottom=0;whiteSpace=wrap;html=1;" vertex="1" parent="1">
          <mxGeometry x="-700" y="-1960" width="220" height="520" as="geometry" />
        </mxCell>
        <mxCell id="ljMkYENFZzZCaW7aI6AF-15" value="id SERIAL PK" style="text;strokeColor=none;fillColor=none;align=left;verticalAlign=top;spacingLeft=4;spacingRight=4;overflow=hidden;rotatable=0;points=[[0,0.5],[1,0.5]];portConstraint=eastwest;whiteSpace=wrap;html=1;" vertex="1" parent="ljMkYENFZzZCaW7aI6AF-14">
          <mxGeometry y="26" width="220" height="26" as="geometry" />
        </mxCell>
        <mxCell id="ljMkYENFZzZCaW7aI6AF-128" value="status_id INT FK" style="text;strokeColor=none;fillColor=none;align=left;verticalAlign=top;spacingLeft=4;spacingRight=4;overflow=hidden;rotatable=0;points=[[0,0.5],[1,0.5]];portConstraint=eastwest;whiteSpace=wrap;html=1;" vertex="1" parent="ljMkYENFZzZCaW7aI6AF-14">
          <mxGeometry y="52" width="220" height="26" as="geometry" />
        </mxCell>
        <mxCell id="ljMkYENFZzZCaW7aI6AF-16" value="surname VARCHAR(50)" style="text;strokeColor=none;fillColor=none;align=left;verticalAlign=top;spacingLeft=4;spacingRight=4;overflow=hidden;rotatable=0;points=[[0,0.5],[1,0.5]];portConstraint=eastwest;whiteSpace=wrap;html=1;" vertex="1" parent="ljMkYENFZzZCaW7aI6AF-14">
          <mxGeometry y="78" width="220" height="26" as="geometry" />
        </mxCell>
        <mxCell id="ljMkYENFZzZCaW7aI6AF-17" value="name VARCHAR(50)" style="text;strokeColor=none;fillColor=none;align=left;verticalAlign=top;spacingLeft=4;spacingRight=4;overflow=hidden;rotatable=0;points=[[0,0.5],[1,0.5]];portConstraint=eastwest;whiteSpace=wrap;html=1;" vertex="1" parent="ljMkYENFZzZCaW7aI6AF-14">
          <mxGeometry y="104" width="220" height="26" as="geometry" />
        </mxCell>
        <mxCell id="ljMkYENFZzZCaW7aI6AF-18" value="patronymic VARCHAR(50)" style="text;strokeColor=none;fillColor=none;align=left;verticalAlign=top;spacingLeft=4;spacingRight=4;overflow=hidden;rotatable=0;points=[[0,0.5],[1,0.5]];portConstraint=eastwest;whiteSpace=wrap;html=1;" vertex="1" parent="ljMkYENFZzZCaW7aI6AF-14">
          <mxGeometry y="130" width="220" height="26" as="geometry" />
        </mxCell>
        <mxCell id="ljMkYENFZzZCaW7aI6AF-19" value="position_id INT FK" style="text;strokeColor=none;fillColor=none;align=left;verticalAlign=top;spacingLeft=4;spacingRight=4;overflow=hidden;rotatable=0;points=[[0,0.5],[1,0.5]];portConstraint=eastwest;whiteSpace=wrap;html=1;" vertex="1" parent="ljMkYENFZzZCaW7aI6AF-14">
          <mxGeometry y="156" width="220" height="26" as="geometry" />
        </mxCell>
        <mxCell id="ljMkYENFZzZCaW7aI6AF-20" value="dateOfBirth TIMESTAMP" style="text;strokeColor=none;fillColor=none;align=left;verticalAlign=top;spacingLeft=4;spacingRight=4;overflow=hidden;rotatable=0;points=[[0,0.5],[1,0.5]];portConstraint=eastwest;whiteSpace=wrap;html=1;" vertex="1" parent="ljMkYENFZzZCaW7aI6AF-14">
          <mxGeometry y="182" width="220" height="26" as="geometry" />
        </mxCell>
        <mxCell id="ljMkYENFZzZCaW7aI6AF-21" value="passportSeries VARCHAR(4)" style="text;strokeColor=none;fillColor=none;align=left;verticalAlign=top;spacingLeft=4;spacingRight=4;overflow=hidden;rotatable=0;points=[[0,0.5],[1,0.5]];portConstraint=eastwest;whiteSpace=wrap;html=1;" vertex="1" parent="ljMkYENFZzZCaW7aI6AF-14">
          <mxGeometry y="208" width="220" height="26" as="geometry" />
        </mxCell>
        <mxCell id="ljMkYENFZzZCaW7aI6AF-22" value="passportNumber VARCHAR(6)" style="text;strokeColor=none;fillColor=none;align=left;verticalAlign=top;spacingLeft=4;spacingRight=4;overflow=hidden;rotatable=0;points=[[0,0.5],[1,0.5]];portConstraint=eastwest;whiteSpace=wrap;html=1;" vertex="1" parent="ljMkYENFZzZCaW7aI6AF-14">
          <mxGeometry y="234" width="220" height="26" as="geometry" />
        </mxCell>
        <mxCell id="ljMkYENFZzZCaW7aI6AF-23" value="dateOfIssue TIMESTAMP" style="text;strokeColor=none;fillColor=none;align=left;verticalAlign=top;spacingLeft=4;spacingRight=4;overflow=hidden;rotatable=0;points=[[0,0.5],[1,0.5]];portConstraint=eastwest;whiteSpace=wrap;html=1;" vertex="1" parent="ljMkYENFZzZCaW7aI6AF-14">
          <mxGeometry y="260" width="220" height="26" as="geometry" />
        </mxCell>
        <mxCell id="ljMkYENFZzZCaW7aI6AF-24" value="departmentCode VARCHAR(10)" style="text;strokeColor=none;fillColor=none;align=left;verticalAlign=top;spacingLeft=4;spacingRight=4;overflow=hidden;rotatable=0;points=[[0,0.5],[1,0.5]];portConstraint=eastwest;whiteSpace=wrap;html=1;" vertex="1" parent="ljMkYENFZzZCaW7aI6AF-14">
          <mxGeometry y="286" width="220" height="26" as="geometry" />
        </mxCell>
        <mxCell id="ljMkYENFZzZCaW7aI6AF-25" value="passportAuthorityCode VARCHAR(50)" style="text;strokeColor=none;fillColor=none;align=left;verticalAlign=top;spacingLeft=4;spacingRight=4;overflow=hidden;rotatable=0;points=[[0,0.5],[1,0.5]];portConstraint=eastwest;whiteSpace=wrap;html=1;" vertex="1" parent="ljMkYENFZzZCaW7aI6AF-14">
          <mxGeometry y="312" width="220" height="26" as="geometry" />
        </mxCell>
        <mxCell id="ljMkYENFZzZCaW7aI6AF-26" value="passportIssuedBy VARCHAR(50)" style="text;strokeColor=none;fillColor=none;align=left;verticalAlign=top;spacingLeft=4;spacingRight=4;overflow=hidden;rotatable=0;points=[[0,0.5],[1,0.5]];portConstraint=eastwest;whiteSpace=wrap;html=1;" vertex="1" parent="ljMkYENFZzZCaW7aI6AF-14">
          <mxGeometry y="338" width="220" height="26" as="geometry" />
        </mxCell>
        <mxCell id="ljMkYENFZzZCaW7aI6AF-27" value="region VARCHAR(50)" style="text;strokeColor=none;fillColor=none;align=left;verticalAlign=top;spacingLeft=4;spacingRight=4;overflow=hidden;rotatable=0;points=[[0,0.5],[1,0.5]];portConstraint=eastwest;whiteSpace=wrap;html=1;" vertex="1" parent="ljMkYENFZzZCaW7aI6AF-14">
          <mxGeometry y="364" width="220" height="26" as="geometry" />
        </mxCell>
        <mxCell id="ljMkYENFZzZCaW7aI6AF-28" value="city VARCHAR(50)" style="text;strokeColor=none;fillColor=none;align=left;verticalAlign=top;spacingLeft=4;spacingRight=4;overflow=hidden;rotatable=0;points=[[0,0.5],[1,0.5]];portConstraint=eastwest;whiteSpace=wrap;html=1;" vertex="1" parent="ljMkYENFZzZCaW7aI6AF-14">
          <mxGeometry y="390" width="220" height="26" as="geometry" />
        </mxCell>
        <mxCell id="ljMkYENFZzZCaW7aI6AF-29" value="house VARCHAR(10)" style="text;strokeColor=none;fillColor=none;align=left;verticalAlign=top;spacingLeft=4;spacingRight=4;overflow=hidden;rotatable=0;points=[[0,0.5],[1,0.5]];portConstraint=eastwest;whiteSpace=wrap;html=1;" vertex="1" parent="ljMkYENFZzZCaW7aI6AF-14">
          <mxGeometry y="416" width="220" height="26" as="geometry" />
        </mxCell>
        <mxCell id="ljMkYENFZzZCaW7aI6AF-30" value="building VARCHAR(10)" style="text;strokeColor=none;fillColor=none;align=left;verticalAlign=top;spacingLeft=4;spacingRight=4;overflow=hidden;rotatable=0;points=[[0,0.5],[1,0.5]];portConstraint=eastwest;whiteSpace=wrap;html=1;" vertex="1" parent="ljMkYENFZzZCaW7aI6AF-14">
          <mxGeometry y="442" width="220" height="26" as="geometry" />
        </mxCell>
        <mxCell id="ljMkYENFZzZCaW7aI6AF-31" value="apartment VARCHAR(10)" style="text;strokeColor=none;fillColor=none;align=left;verticalAlign=top;spacingLeft=4;spacingRight=4;overflow=hidden;rotatable=0;points=[[0,0.5],[1,0.5]];portConstraint=eastwest;whiteSpace=wrap;html=1;" vertex="1" parent="ljMkYENFZzZCaW7aI6AF-14">
          <mxGeometry y="468" width="220" height="26" as="geometry" />
        </mxCell>
        <mxCell id="ljMkYENFZzZCaW7aI6AF-33" value="department_id INT FK" style="text;strokeColor=none;fillColor=none;align=left;verticalAlign=top;spacingLeft=4;spacingRight=4;overflow=hidden;rotatable=0;points=[[0,0.5],[1,0.5]];portConstraint=eastwest;whiteSpace=wrap;html=1;" vertex="1" parent="ljMkYENFZzZCaW7aI6AF-14">
          <mxGeometry y="494" width="220" height="26" as="geometry" />
        </mxCell>
        <mxCell id="ljMkYENFZzZCaW7aI6AF-34" value="Как я понял поле &quot;родитель&quot; это идентификатор именно отдела, а поле id идентификатор подотделов и в случае если у parent будет значение NULL, значит этот отдел не является дочерним&amp;nbsp;" style="rounded=1;whiteSpace=wrap;html=1;fillColor=#d5e8d4;strokeColor=#82b366;" vertex="1" parent="1">
          <mxGeometry x="-1100" y="-1420" width="220" height="96" as="geometry" />
        </mxCell>
        <mxCell id="ljMkYENFZzZCaW7aI6AF-35" value="" style="endArrow=none;html=1;rounded=0;entryX=0.026;entryY=0.921;entryDx=0;entryDy=0;entryPerimeter=0;exitX=0.993;exitY=0.904;exitDx=0;exitDy=0;exitPerimeter=0;" edge="1" parent="1" target="ljMkYENFZzZCaW7aI6AF-34" source="ljMkYENFZzZCaW7aI6AF-10">
          <mxGeometry width="50" height="50" relative="1" as="geometry">
            <mxPoint x="-1250" y="-1390" as="sourcePoint" />
            <mxPoint x="-1010" y="-1460" as="targetPoint" />
          </mxGeometry>
        </mxCell>
        <mxCell id="ljMkYENFZzZCaW7aI6AF-36" value="HRoperations" style="swimlane;fontStyle=0;childLayout=stackLayout;horizontal=1;startSize=26;fillColor=none;horizontalStack=0;resizeParent=1;resizeParentMax=0;resizeLast=0;collapsible=1;marginBottom=0;whiteSpace=wrap;html=1;" vertex="1" parent="1">
          <mxGeometry x="-1010" y="-1970" width="210" height="208" as="geometry" />
        </mxCell>
        <mxCell id="ljMkYENFZzZCaW7aI6AF-37" value="id SERIAL PK" style="text;strokeColor=none;fillColor=none;align=left;verticalAlign=top;spacingLeft=4;spacingRight=4;overflow=hidden;rotatable=0;points=[[0,0.5],[1,0.5]];portConstraint=eastwest;whiteSpace=wrap;html=1;" vertex="1" parent="ljMkYENFZzZCaW7aI6AF-36">
          <mxGeometry y="26" width="210" height="26" as="geometry" />
        </mxCell>
        <mxCell id="ljMkYENFZzZCaW7aI6AF-140" value="operation_id" style="text;strokeColor=none;fillColor=none;align=left;verticalAlign=top;spacingLeft=4;spacingRight=4;overflow=hidden;rotatable=0;points=[[0,0.5],[1,0.5]];portConstraint=eastwest;whiteSpace=wrap;html=1;" vertex="1" parent="ljMkYENFZzZCaW7aI6AF-36">
          <mxGeometry y="52" width="210" height="26" as="geometry" />
        </mxCell>
        <mxCell id="ljMkYENFZzZCaW7aI6AF-39" value="changedSalary VARCHAR(50)" style="text;strokeColor=none;fillColor=none;align=left;verticalAlign=top;spacingLeft=4;spacingRight=4;overflow=hidden;rotatable=0;points=[[0,0.5],[1,0.5]];portConstraint=eastwest;whiteSpace=wrap;html=1;" vertex="1" parent="ljMkYENFZzZCaW7aI6AF-36">
          <mxGeometry y="78" width="210" height="26" as="geometry" />
        </mxCell>
        <mxCell id="ljMkYENFZzZCaW7aI6AF-40" value="changedDepartment VARCHAR(50)" style="text;strokeColor=none;fillColor=none;align=left;verticalAlign=top;spacingLeft=4;spacingRight=4;overflow=hidden;rotatable=0;points=[[0,0.5],[1,0.5]];portConstraint=eastwest;whiteSpace=wrap;html=1;" vertex="1" parent="ljMkYENFZzZCaW7aI6AF-36">
          <mxGeometry y="104" width="210" height="26" as="geometry" />
        </mxCell>
        <mxCell id="ljMkYENFZzZCaW7aI6AF-134" value="employ VARCHAR(50)" style="text;strokeColor=none;fillColor=none;align=left;verticalAlign=top;spacingLeft=4;spacingRight=4;overflow=hidden;rotatable=0;points=[[0,0.5],[1,0.5]];portConstraint=eastwest;whiteSpace=wrap;html=1;" vertex="1" parent="ljMkYENFZzZCaW7aI6AF-36">
          <mxGeometry y="130" width="210" height="26" as="geometry" />
        </mxCell>
        <mxCell id="ljMkYENFZzZCaW7aI6AF-135" value="dismiss VARCHAR(50)" style="text;strokeColor=none;fillColor=none;align=left;verticalAlign=top;spacingLeft=4;spacingRight=4;overflow=hidden;rotatable=0;points=[[0,0.5],[1,0.5]];portConstraint=eastwest;whiteSpace=wrap;html=1;" vertex="1" parent="ljMkYENFZzZCaW7aI6AF-36">
          <mxGeometry y="156" width="210" height="26" as="geometry" />
        </mxCell>
        <mxCell id="ljMkYENFZzZCaW7aI6AF-94" value="organization_id INT F&lt;span style=&quot;background-color: initial;&quot;&gt;K&lt;/span&gt;" style="text;strokeColor=none;fillColor=none;align=left;verticalAlign=top;spacingLeft=4;spacingRight=4;overflow=hidden;rotatable=0;points=[[0,0.5],[1,0.5]];portConstraint=eastwest;whiteSpace=wrap;html=1;" vertex="1" parent="ljMkYENFZzZCaW7aI6AF-36">
          <mxGeometry y="182" width="210" height="26" as="geometry" />
        </mxCell>
        <mxCell id="ljMkYENFZzZCaW7aI6AF-42" value="files" style="swimlane;fontStyle=0;childLayout=stackLayout;horizontal=1;startSize=26;fillColor=none;horizontalStack=0;resizeParent=1;resizeParentMax=0;resizeLast=0;collapsible=1;marginBottom=0;whiteSpace=wrap;html=1;" vertex="1" parent="1">
          <mxGeometry x="-900" y="-1630" width="140" height="104" as="geometry" />
        </mxCell>
        <mxCell id="ljMkYENFZzZCaW7aI6AF-43" value="id SERIAL PK" style="text;strokeColor=none;fillColor=none;align=left;verticalAlign=top;spacingLeft=4;spacingRight=4;overflow=hidden;rotatable=0;points=[[0,0.5],[1,0.5]];portConstraint=eastwest;whiteSpace=wrap;html=1;" vertex="1" parent="ljMkYENFZzZCaW7aI6AF-42">
          <mxGeometry y="26" width="140" height="26" as="geometry" />
        </mxCell>
        <mxCell id="ljMkYENFZzZCaW7aI6AF-44" value="employee_id INT FK" style="text;strokeColor=none;fillColor=none;align=left;verticalAlign=top;spacingLeft=4;spacingRight=4;overflow=hidden;rotatable=0;points=[[0,0.5],[1,0.5]];portConstraint=eastwest;whiteSpace=wrap;html=1;" vertex="1" parent="ljMkYENFZzZCaW7aI6AF-42">
          <mxGeometry y="52" width="140" height="26" as="geometry" />
        </mxCell>
        <mxCell id="ljMkYENFZzZCaW7aI6AF-142" value="name VARCHAR(100)&amp;nbsp;" style="text;strokeColor=none;fillColor=none;align=left;verticalAlign=top;spacingLeft=4;spacingRight=4;overflow=hidden;rotatable=0;points=[[0,0.5],[1,0.5]];portConstraint=eastwest;whiteSpace=wrap;html=1;" vertex="1" parent="ljMkYENFZzZCaW7aI6AF-42">
          <mxGeometry y="78" width="140" height="26" as="geometry" />
        </mxCell>
        <mxCell id="ljMkYENFZzZCaW7aI6AF-45" value="history" style="swimlane;fontStyle=0;childLayout=stackLayout;horizontal=1;startSize=26;fillColor=none;horizontalStack=0;resizeParent=1;resizeParentMax=0;resizeLast=0;collapsible=1;marginBottom=0;whiteSpace=wrap;html=1;direction=east;" vertex="1" parent="1">
          <mxGeometry x="-1290" y="-2146" width="200" height="130" as="geometry" />
        </mxCell>
        <mxCell id="ljMkYENFZzZCaW7aI6AF-46" value="id SERIAL PK" style="text;strokeColor=none;fillColor=none;align=left;verticalAlign=top;spacingLeft=4;spacingRight=4;overflow=hidden;rotatable=0;points=[[0,0.5],[1,0.5]];portConstraint=eastwest;whiteSpace=wrap;html=1;" vertex="1" parent="ljMkYENFZzZCaW7aI6AF-45">
          <mxGeometry y="26" width="200" height="26" as="geometry" />
        </mxCell>
        <mxCell id="ljMkYENFZzZCaW7aI6AF-143" value="changeRequest INT FK" style="text;strokeColor=none;fillColor=none;align=left;verticalAlign=top;spacingLeft=4;spacingRight=4;overflow=hidden;rotatable=0;points=[[0,0.5],[1,0.5]];portConstraint=eastwest;whiteSpace=wrap;html=1;" vertex="1" parent="ljMkYENFZzZCaW7aI6AF-45">
          <mxGeometry y="52" width="200" height="26" as="geometry" />
        </mxCell>
        <mxCell id="ljMkYENFZzZCaW7aI6AF-47" value="changeDateAndTime TIMESTAMP" style="text;strokeColor=none;fillColor=none;align=left;verticalAlign=top;spacingLeft=4;spacingRight=4;overflow=hidden;rotatable=0;points=[[0,0.5],[1,0.5]];portConstraint=eastwest;whiteSpace=wrap;html=1;" vertex="1" parent="ljMkYENFZzZCaW7aI6AF-45">
          <mxGeometry y="78" width="200" height="26" as="geometry" />
        </mxCell>
        <mxCell id="ljMkYENFZzZCaW7aI6AF-48" value="changeBy VARCHAR(50)" style="text;strokeColor=none;fillColor=none;align=left;verticalAlign=top;spacingLeft=4;spacingRight=4;overflow=hidden;rotatable=0;points=[[0,0.5],[1,0.5]];portConstraint=eastwest;whiteSpace=wrap;html=1;" vertex="1" parent="ljMkYENFZzZCaW7aI6AF-45">
          <mxGeometry y="104" width="200" height="26" as="geometry" />
        </mxCell>
        <mxCell id="ljMkYENFZzZCaW7aI6AF-49" value="objectOperation" style="swimlane;fontStyle=0;childLayout=stackLayout;horizontal=1;startSize=26;fillColor=none;horizontalStack=0;resizeParent=1;resizeParentMax=0;resizeLast=0;collapsible=1;marginBottom=0;whiteSpace=wrap;html=1;" vertex="1" parent="1">
          <mxGeometry x="-920" y="-2170" width="180" height="78" as="geometry" />
        </mxCell>
        <mxCell id="ljMkYENFZzZCaW7aI6AF-50" value="id SERIAL PK" style="text;strokeColor=none;fillColor=none;align=left;verticalAlign=top;spacingLeft=4;spacingRight=4;overflow=hidden;rotatable=0;points=[[0,0.5],[1,0.5]];portConstraint=eastwest;whiteSpace=wrap;html=1;" vertex="1" parent="ljMkYENFZzZCaW7aI6AF-49">
          <mxGeometry y="26" width="180" height="26" as="geometry" />
        </mxCell>
        <mxCell id="ljMkYENFZzZCaW7aI6AF-139" value="operationName VARCHAR(20)" style="text;strokeColor=none;fillColor=none;align=left;verticalAlign=top;spacingLeft=4;spacingRight=4;overflow=hidden;rotatable=0;points=[[0,0.5],[1,0.5]];portConstraint=eastwest;whiteSpace=wrap;html=1;" vertex="1" parent="ljMkYENFZzZCaW7aI6AF-49">
          <mxGeometry y="52" width="180" height="26" as="geometry" />
        </mxCell>
        <mxCell id="ljMkYENFZzZCaW7aI6AF-59" value="" style="endArrow=none;html=1;edgeStyle=orthogonalEdgeStyle;rounded=0;exitX=0;exitY=0.5;exitDx=0;exitDy=0;entryX=1;entryY=0.5;entryDx=0;entryDy=0;" edge="1" parent="1" source="ljMkYENFZzZCaW7aI6AF-19" target="ljMkYENFZzZCaW7aI6AF-12">
          <mxGeometry relative="1" as="geometry">
            <mxPoint x="-1010" y="-1725" as="sourcePoint" />
            <mxPoint x="-800" y="-1840" as="targetPoint" />
          </mxGeometry>
        </mxCell>
        <mxCell id="ljMkYENFZzZCaW7aI6AF-60" value="*" style="edgeLabel;resizable=0;html=1;align=left;verticalAlign=bottom;" connectable="0" vertex="1" parent="ljMkYENFZzZCaW7aI6AF-59">
          <mxGeometry x="-1" relative="1" as="geometry">
            <mxPoint x="-10" as="offset" />
          </mxGeometry>
        </mxCell>
        <mxCell id="ljMkYENFZzZCaW7aI6AF-61" value="1" style="edgeLabel;resizable=0;html=1;align=right;verticalAlign=bottom;" connectable="0" vertex="1" parent="ljMkYENFZzZCaW7aI6AF-59">
          <mxGeometry x="1" relative="1" as="geometry">
            <mxPoint x="10" as="offset" />
          </mxGeometry>
        </mxCell>
        <mxCell id="ljMkYENFZzZCaW7aI6AF-71" value="" style="endArrow=none;html=1;edgeStyle=orthogonalEdgeStyle;rounded=0;exitX=0;exitY=0.5;exitDx=0;exitDy=0;entryX=1;entryY=0.5;entryDx=0;entryDy=0;" edge="1" parent="1" source="ljMkYENFZzZCaW7aI6AF-33" target="ljMkYENFZzZCaW7aI6AF-6">
          <mxGeometry relative="1" as="geometry">
            <mxPoint x="-870" y="-1573" as="sourcePoint" />
            <mxPoint x="-970" y="-1570" as="targetPoint" />
            <Array as="points">
              <mxPoint x="-700" y="-1470" />
              <mxPoint x="-970" y="-1470" />
              <mxPoint x="-970" y="-1521" />
              <mxPoint x="-1120" y="-1521" />
              <mxPoint x="-1120" y="-1590" />
              <mxPoint x="-1150" y="-1590" />
            </Array>
          </mxGeometry>
        </mxCell>
        <mxCell id="ljMkYENFZzZCaW7aI6AF-72" value="*" style="edgeLabel;resizable=0;html=1;align=left;verticalAlign=bottom;" connectable="0" vertex="1" parent="ljMkYENFZzZCaW7aI6AF-71">
          <mxGeometry x="-1" relative="1" as="geometry">
            <mxPoint x="-10" y="9" as="offset" />
          </mxGeometry>
        </mxCell>
        <mxCell id="ljMkYENFZzZCaW7aI6AF-73" value="1" style="edgeLabel;resizable=0;html=1;align=right;verticalAlign=bottom;" connectable="0" vertex="1" parent="ljMkYENFZzZCaW7aI6AF-71">
          <mxGeometry x="1" relative="1" as="geometry">
            <mxPoint x="10" y="20" as="offset" />
          </mxGeometry>
        </mxCell>
        <mxCell id="ljMkYENFZzZCaW7aI6AF-83" value="" style="endArrow=none;html=1;edgeStyle=orthogonalEdgeStyle;rounded=0;entryX=0;entryY=0.5;entryDx=0;entryDy=0;exitX=0;exitY=0.5;exitDx=0;exitDy=0;" edge="1" parent="1" source="ljMkYENFZzZCaW7aI6AF-10" target="ljMkYENFZzZCaW7aI6AF-2">
          <mxGeometry relative="1" as="geometry">
            <mxPoint x="-1490" y="-1580" as="sourcePoint" />
            <mxPoint x="-1580" y="-1517" as="targetPoint" />
            <Array as="points">
              <mxPoint x="-1420" y="-1487" />
              <mxPoint x="-1420" y="-1741" />
              <mxPoint x="-1370" y="-1741" />
              <mxPoint x="-1370" y="-1881" />
            </Array>
          </mxGeometry>
        </mxCell>
        <mxCell id="ljMkYENFZzZCaW7aI6AF-84" value="*" style="edgeLabel;resizable=0;html=1;align=left;verticalAlign=bottom;" connectable="0" vertex="1" parent="ljMkYENFZzZCaW7aI6AF-83">
          <mxGeometry x="-1" relative="1" as="geometry">
            <mxPoint x="-10" as="offset" />
          </mxGeometry>
        </mxCell>
        <mxCell id="ljMkYENFZzZCaW7aI6AF-85" value="1" style="edgeLabel;resizable=0;html=1;align=right;verticalAlign=bottom;" connectable="0" vertex="1" parent="ljMkYENFZzZCaW7aI6AF-83">
          <mxGeometry x="1" relative="1" as="geometry">
            <mxPoint x="-10" as="offset" />
          </mxGeometry>
        </mxCell>
        <mxCell id="ljMkYENFZzZCaW7aI6AF-99" value="" style="endArrow=none;html=1;edgeStyle=orthogonalEdgeStyle;rounded=0;entryX=1;entryY=0.5;entryDx=0;entryDy=0;exitX=1;exitY=0.5;exitDx=0;exitDy=0;" edge="1" parent="1" source="ljMkYENFZzZCaW7aI6AF-140" target="ljMkYENFZzZCaW7aI6AF-50">
          <mxGeometry x="0.009" y="-20" relative="1" as="geometry">
            <mxPoint x="-840" y="-1855" as="sourcePoint" />
            <mxPoint x="-675" y="-2210" as="targetPoint" />
            <Array as="points">
              <mxPoint x="-750" y="-1905" />
              <mxPoint x="-750" y="-1980" />
              <mxPoint x="-660" y="-1980" />
              <mxPoint x="-660" y="-2131" />
            </Array>
            <mxPoint as="offset" />
          </mxGeometry>
        </mxCell>
        <mxCell id="ljMkYENFZzZCaW7aI6AF-100" value="*" style="edgeLabel;resizable=0;html=1;align=left;verticalAlign=bottom;" connectable="0" vertex="1" parent="ljMkYENFZzZCaW7aI6AF-99">
          <mxGeometry x="-1" relative="1" as="geometry">
            <mxPoint y="-5" as="offset" />
          </mxGeometry>
        </mxCell>
        <mxCell id="ljMkYENFZzZCaW7aI6AF-101" value="1" style="edgeLabel;resizable=0;html=1;align=right;verticalAlign=bottom;" connectable="0" vertex="1" parent="ljMkYENFZzZCaW7aI6AF-99">
          <mxGeometry x="1" relative="1" as="geometry">
            <mxPoint x="10" y="1" as="offset" />
          </mxGeometry>
        </mxCell>
        <mxCell id="ljMkYENFZzZCaW7aI6AF-106" value="" style="endArrow=none;html=1;edgeStyle=orthogonalEdgeStyle;rounded=0;exitX=1;exitY=0.5;exitDx=0;exitDy=0;entryX=0;entryY=0.5;entryDx=0;entryDy=0;" edge="1" parent="1" source="ljMkYENFZzZCaW7aI6AF-143" target="ljMkYENFZzZCaW7aI6AF-37">
          <mxGeometry relative="1" as="geometry">
            <mxPoint x="-960" y="-2099" as="sourcePoint" />
            <mxPoint x="-1070" y="-1980" as="targetPoint" />
          </mxGeometry>
        </mxCell>
        <mxCell id="ljMkYENFZzZCaW7aI6AF-107" value="*" style="edgeLabel;resizable=0;html=1;align=left;verticalAlign=bottom;" connectable="0" vertex="1" parent="ljMkYENFZzZCaW7aI6AF-106">
          <mxGeometry x="-1" relative="1" as="geometry">
            <mxPoint y="-9" as="offset" />
          </mxGeometry>
        </mxCell>
        <mxCell id="ljMkYENFZzZCaW7aI6AF-108" value="1" style="edgeLabel;resizable=0;html=1;align=right;verticalAlign=bottom;" connectable="0" vertex="1" parent="ljMkYENFZzZCaW7aI6AF-106">
          <mxGeometry x="1" relative="1" as="geometry">
            <mxPoint x="-10" as="offset" />
          </mxGeometry>
        </mxCell>
        <mxCell id="ljMkYENFZzZCaW7aI6AF-110" value="" style="endArrow=none;html=1;edgeStyle=orthogonalEdgeStyle;rounded=0;exitX=0;exitY=0.5;exitDx=0;exitDy=0;entryX=1;entryY=0.5;entryDx=0;entryDy=0;" edge="1" parent="1" source="ljMkYENFZzZCaW7aI6AF-94" target="ljMkYENFZzZCaW7aI6AF-2">
          <mxGeometry relative="1" as="geometry">
            <mxPoint x="-830" y="-1830" as="sourcePoint" />
            <mxPoint x="-1030" y="-1764" as="targetPoint" />
          </mxGeometry>
        </mxCell>
        <mxCell id="ljMkYENFZzZCaW7aI6AF-111" value="*" style="edgeLabel;resizable=0;html=1;align=left;verticalAlign=bottom;" connectable="0" vertex="1" parent="ljMkYENFZzZCaW7aI6AF-110">
          <mxGeometry x="-1" relative="1" as="geometry">
            <mxPoint x="-10" as="offset" />
          </mxGeometry>
        </mxCell>
        <mxCell id="ljMkYENFZzZCaW7aI6AF-112" value="1" style="edgeLabel;resizable=0;html=1;align=right;verticalAlign=bottom;" connectable="0" vertex="1" parent="ljMkYENFZzZCaW7aI6AF-110">
          <mxGeometry x="1" relative="1" as="geometry">
            <mxPoint x="10" as="offset" />
          </mxGeometry>
        </mxCell>
        <mxCell id="ljMkYENFZzZCaW7aI6AF-117" value="" style="endArrow=none;html=1;edgeStyle=orthogonalEdgeStyle;rounded=0;entryX=1;entryY=0.5;entryDx=0;entryDy=0;exitX=0;exitY=0.5;exitDx=0;exitDy=0;" edge="1" parent="1" source="ljMkYENFZzZCaW7aI6AF-15" target="ljMkYENFZzZCaW7aI6AF-44">
          <mxGeometry relative="1" as="geometry">
            <mxPoint x="-700.44" y="-1475.334" as="sourcePoint" />
            <mxPoint x="-780" y="-1535" as="targetPoint" />
            <Array as="points">
              <mxPoint x="-720" y="-1921" />
              <mxPoint x="-720" y="-1565" />
            </Array>
          </mxGeometry>
        </mxCell>
        <mxCell id="ljMkYENFZzZCaW7aI6AF-118" value="1" style="edgeLabel;resizable=0;html=1;align=left;verticalAlign=bottom;" connectable="0" vertex="1" parent="ljMkYENFZzZCaW7aI6AF-117">
          <mxGeometry x="-1" relative="1" as="geometry">
            <mxPoint x="-10" y="-5" as="offset" />
          </mxGeometry>
        </mxCell>
        <mxCell id="ljMkYENFZzZCaW7aI6AF-119" value="*" style="edgeLabel;resizable=0;html=1;align=right;verticalAlign=bottom;" connectable="0" vertex="1" parent="ljMkYENFZzZCaW7aI6AF-117">
          <mxGeometry x="1" relative="1" as="geometry">
            <mxPoint x="10" y="20" as="offset" />
          </mxGeometry>
        </mxCell>
        <mxCell id="ljMkYENFZzZCaW7aI6AF-122" value="employeeStatus" style="swimlane;fontStyle=0;childLayout=stackLayout;horizontal=1;startSize=26;fillColor=none;horizontalStack=0;resizeParent=1;resizeParentMax=0;resizeLast=0;collapsible=1;marginBottom=0;whiteSpace=wrap;html=1;direction=east;" vertex="1" parent="1">
          <mxGeometry x="-630" y="-2120" width="200" height="78" as="geometry" />
        </mxCell>
        <mxCell id="ljMkYENFZzZCaW7aI6AF-123" value="id SERIAL PK" style="text;strokeColor=none;fillColor=none;align=left;verticalAlign=top;spacingLeft=4;spacingRight=4;overflow=hidden;rotatable=0;points=[[0,0.5],[1,0.5]];portConstraint=eastwest;whiteSpace=wrap;html=1;" vertex="1" parent="ljMkYENFZzZCaW7aI6AF-122">
          <mxGeometry y="26" width="200" height="26" as="geometry" />
        </mxCell>
        <mxCell id="ljMkYENFZzZCaW7aI6AF-133" value="statusName VARCHAR(20)" style="text;strokeColor=none;fillColor=none;align=left;verticalAlign=top;spacingLeft=4;spacingRight=4;overflow=hidden;rotatable=0;points=[[0,0.5],[1,0.5]];portConstraint=eastwest;whiteSpace=wrap;html=1;" vertex="1" parent="ljMkYENFZzZCaW7aI6AF-122">
          <mxGeometry y="52" width="200" height="26" as="geometry" />
        </mxCell>
        <mxCell id="ljMkYENFZzZCaW7aI6AF-130" value="" style="endArrow=none;html=1;edgeStyle=orthogonalEdgeStyle;rounded=0;entryX=1;entryY=0.5;entryDx=0;entryDy=0;exitX=1;exitY=0.5;exitDx=0;exitDy=0;" edge="1" parent="1" source="ljMkYENFZzZCaW7aI6AF-128">
          <mxGeometry relative="1" as="geometry">
            <mxPoint x="-510" y="-1816" as="sourcePoint" />
            <mxPoint x="-430" y="-2088" as="targetPoint" />
            <Array as="points">
              <mxPoint x="-460" y="-1895" />
              <mxPoint x="-460" y="-1953" />
              <mxPoint x="-380" y="-1953" />
              <mxPoint x="-380" y="-2088" />
            </Array>
          </mxGeometry>
        </mxCell>
        <mxCell id="ljMkYENFZzZCaW7aI6AF-131" value="*" style="edgeLabel;resizable=0;html=1;align=left;verticalAlign=bottom;" connectable="0" vertex="1" parent="ljMkYENFZzZCaW7aI6AF-130">
          <mxGeometry x="-1" relative="1" as="geometry">
            <mxPoint y="1" as="offset" />
          </mxGeometry>
        </mxCell>
        <mxCell id="ljMkYENFZzZCaW7aI6AF-132" value="1" style="edgeLabel;resizable=0;html=1;align=right;verticalAlign=bottom;" connectable="0" vertex="1" parent="ljMkYENFZzZCaW7aI6AF-130">
          <mxGeometry x="1" relative="1" as="geometry">
            <mxPoint x="10" y="-5" as="offset" />
          </mxGeometry>
        </mxCell>
      </root>
    </mxGraphModel>
  </diagram>
</mxfile>
